<?xml version="1.0" encoding="UTF-8" standalone="no"?>
<!-- Created with Inkscape (http://www.inkscape.org/) -->
<svg width="1024" height="1024" viewBox="0 0 270.93333 270.93333" version="1.1" id="svg6884" inkscape:version="1.3 (0e150ed6c4, 2023-07-21)" sodipodi:docname="arch_starfield.svg" inkscape:export-filename="arch_starfield.png" inkscape:export-xdpi="96" inkscape:export-ydpi="96" xmlns:inkscape="http://www.inkscape.org/namespaces/inkscape" xmlns:sodipodi="http://sodipodi.sourceforge.net/DTD/sodipodi-0.dtd" xmlns="http://www.w3.org/2000/svg" xmlns:svg="http://www.w3.org/2000/svg">
  <sodipodi:namedview id="namedview6886" pagecolor="#505050" bordercolor="#eeeeee" borderopacity="1" inkscape:showpageshadow="0" inkscape:pageopacity="0" inkscape:pagecheckerboard="true" inkscape:deskcolor="#333333" inkscape:document-units="px" showgrid="false" inkscape:zoom="1.0469406" inkscape:cx="652.37701" inkscape:cy="498.11802" inkscape:window-width="2544" inkscape:window-height="1373" inkscape:window-x="0" inkscape:window-y="0" inkscape:window-maximized="1" inkscape:current-layer="layer1" inkscape:export-bgcolor="#00000000">
    <sodipodi:guide position="0,135.467" orientation="0,1" inkscape:color="rgba(63, 63, 255, 0.25098)" id="guide1" inkscape:locked="false"/>
    <sodipodi:guide position="135.467,0" orientation="1,0" inkscape:color="rgba(63, 63, 255, 0.25098)" id="guide2" inkscape:locked="false"/>
  </sodipodi:namedview>
  <defs id="defs6881">
    <rect x="380.87164" y="409.79894" width="293.07118" height="191.35741" id="rect2"/>
  </defs>
  <g inkscape:label="Layer 1" inkscape:groupmode="layer" id="layer1">
    <path id="path2" style="color:#000000;fill:#fefefe;stroke-width:1.63246;stroke-miterlimit:100;-inkscape-stroke:none" d="m 135.46666,37.458307 c -47.410295,0 -86.986303,33.718945 -96.052049,78.467263 h 4.417079 c 8.983096,-42.37532 46.571322,-74.146354 91.63497,-74.146354 51.76751,0 93.6883,41.91993 93.6883,93.687444 h 4.05597 c 0,-54.101787 -43.64249,-98.008353 -97.74427,-98.008353 z M 38.569326,120.69779 c -0.729175,4.81774 -1.111019,9.74862 -1.111019,14.76887 0,54.10178 43.906566,98.00499 98.008353,98.00499 47.4026,0 86.97173,-33.70509 96.04531,-78.44195 h -4.41455 c -8.9912,42.36461 -46.57468,74.12526 -91.63076,74.12526 -51.767514,0 -93.687444,-41.92079 -93.687444,-93.6883 0,-5.02681 0.40636,-9.95711 1.167539,-14.76887 z" sodipodi:nodetypes="sccsccscssccsscc"/>
    <path id="text2" style="font-size:36.0423px;font-family:'Liberation Sans';-inkscape-font-specification:'Liberation Sans';text-align:center;text-anchor:middle;white-space:pre;fill:#ffffff;stroke-width:11.8513;stroke-miterlimit:100" d="m 79.361499,120.249 c -4.448638,0 -7.930126,1.33594 -10.444583,4.00877 -2.514456,2.67285 -3.771732,6.36723 -3.771732,11.0832 0,3.14864 0.559692,5.87727 1.67877,8.18627 1.13289,2.29501 2.769998,4.06582 4.911417,5.3113 2.155243,1.23146 4.704473,1.84662 7.647218,1.84662 2.873658,0 5.394639,-0.66399 7.563695,-1.99342 2.182881,-1.32942 3.875651,-3.26802 5.077617,-5.81491 l -3.232659,-1.63743 c -2.058543,4.10024 -5.132774,6.15067 -9.22221,6.15067 -3.191422,0 -5.726945,-1.09887 -7.605887,-3.29593 -1.865117,-2.21105 -2.797364,-5.12874 -2.797364,-8.75317 0,-3.66642 0.897568,-6.54863 2.69361,-8.64773 1.79603,-2.11308 4.310581,-3.17024 7.54344,-3.17024 2.058543,0 3.83439,0.45535 5.326482,1.36495 1.505916,0.90959 2.597038,2.22509 3.274003,3.94635 l 3.750642,-1.2595 c -0.980915,-2.42096 -2.513974,-4.24769 -4.600142,-5.47916 -2.086168,-1.23147 -4.683795,-1.84664 -7.792317,-1.84664 z M 31.046125,150.2659 H 35.0878 L 23.357574,120.68936 H 18.861198 L 6.9445306,150.2659 h 4.1032604 l 10.010136,-26.55393 z m 7.605874,-29.57654 1.517633,17.29629 h 8.707619 l 7.584784,12.28025 h 4.559646 l -8.290034,-12.74171 c 2.224319,-0.39183 3.965487,-1.33628 5.222716,-2.83364 1.271041,-1.49735 1.906532,-3.34453 1.906532,-5.54159 0,-2.65886 -0.898416,-4.72974 -2.694458,-6.2131 -1.782229,-1.49736 -4.316905,-2.2465 -7.605027,-2.2465 z m 58.469773,0 v 29.57654 h 3.958148 v -13.70762 h 15.79132 v 13.70762 h 3.95815 v -29.57654 h -3.95815 v 12.51055 h -15.79132 v -12.51055 z m 46.359068,0 v 29.57654 h 18.71354 v -3.27484 H 147.439 v -26.3017 z m 24.03917,0 v 29.57654 h 3.95816 v -29.57654 z m 11.35652,0 v 29.57654 h 3.52285 v -19.64739 l -0.10374,-3.50599 -0.10292,-2.03561 15.62512,25.18899 h 4.76632 v -29.57654 h -3.5642 v 19.39601 c 0,1.23147 0.0831,3.21804 0.24886,5.96085 l -15.7913,-25.35686 z m 58.53471,0 10.25815,14.21125 -11.10765,15.36529 h 4.37237 l 8.95227,-12.93067 8.76666,12.93067 h 4.37237 l -10.83855,-15.51207 9.98905,-14.06447 h -4.37237 l -7.89607,11.6079 -8.12386,-11.6079 z m -197.052645,3.21158 h 8.808853 c 2.169068,0 3.827159,0.45533 4.97385,1.36494 1.160516,0.89561 1.740344,2.204 1.740344,3.92526 0,1.77723 -0.573398,3.16199 -1.720101,4.15556 -1.132879,0.97957 -2.741737,1.46954 -4.827905,1.46954 h -8.975041 z m 169.087845,-3.21158 v 18.82911 c 0,2.32298 0.49117,4.32379 1.47208,6.00305 0.98091,1.67926 2.3624,2.96013 4.14459,3.84174 1.77161,0.87638 3.84419,1.31501 6.21648,1.32022 v 0.001 c 0.009,0 0.0184,-8.4e-4 0.0278,-8.5e-4 0.005,0 0.009,8.5e-4 0.0135,8.5e-4 v -8.5e-4 c 2.37258,-0.005 4.44553,-0.44461 6.21732,-1.32107 1.78221,-0.88161 3.16368,-2.16247 4.1446,-3.84174 0.98091,-1.67926 1.52809,-3.67952 1.52809,-6.00251 v -4.05186 h -4.05597 v 3.7161 c 0,2.70084 -0.63565,4.74991 -1.98959,6.1493 -1.35393,1.3994 -3.3088,2.09971 -5.86469,2.09971 -2.5559,0 -4.51077,-0.70031 -5.8647,-2.09971 -1.35395,-1.39939 -2.03137,-3.44899 -2.03137,-6.14984 v -18.49335 z" sodipodi:nodetypes="sssccscccscscscccsscccccccccccccccccccccscccccccccccccccccccccccccccccccccccccccccccccccccsccccscssscccsssccsccsssccsss"/>
  </g>
</svg>