<?xml version="1.0" encoding="UTF-8" standalone="no"?>
<!-- Created with Inkscape (http://www.inkscape.org/) -->
<svg width="1024" height="1024" viewBox="0 0 270.93333 270.93333" version="1.1" id="svg6884" inkscape:version="1.3 (0e150ed6c4, 2023-07-21)" sodipodi:docname="debian_starfield.svg" inkscape:export-filename="arch_starfield.png" inkscape:export-xdpi="96" inkscape:export-ydpi="96" xmlns:inkscape="http://www.inkscape.org/namespaces/inkscape" xmlns:sodipodi="http://sodipodi.sourceforge.net/DTD/sodipodi-0.dtd" xmlns="http://www.w3.org/2000/svg" xmlns:svg="http://www.w3.org/2000/svg">
  <sodipodi:namedview id="namedview6886" pagecolor="#505050" bordercolor="#eeeeee" borderopacity="1" inkscape:showpageshadow="0" inkscape:pageopacity="0" inkscape:pagecheckerboard="true" inkscape:deskcolor="#333333" inkscape:document-units="px" showgrid="false" inkscape:zoom="1.0469406" inkscape:cx="472.80618" inkscape:cy="506.7145" inkscape:window-width="2544" inkscape:window-height="1373" inkscape:window-x="0" inkscape:window-y="0" inkscape:window-maximized="1" inkscape:current-layer="layer1" inkscape:export-bgcolor="#00000000" showguides="true">
    <sodipodi:guide position="0,135.467" orientation="0,1" inkscape:color="rgba(63, 63, 255, 0.25098)" id="guide1" inkscape:locked="false"/>
    <sodipodi:guide position="135.467,0" orientation="1,0" inkscape:color="rgba(63, 63, 255, 0.25098)" id="guide2" inkscape:locked="false"/>
    <sodipodi:guide position="76.343053,154.47635" orientation="0,-1" id="guide3" inkscape:locked="false"/>
    <sodipodi:guide position="198.51193,116.45668" orientation="0,-1" id="guide4" inkscape:locked="false"/>
  </sodipodi:namedview>
  <defs id="defs6881">
    <rect x="380.87164" y="409.79894" width="293.07118" height="191.35741" id="rect2"/>
  </defs>
  <g inkscape:label="Layer 1" inkscape:groupmode="layer" id="layer1">
    <path id="path3" style="color:#000000;fill:#ffffff;fill-opacity:1;stroke:none;stroke-width:1.40405;stroke-miterlimit:100;stroke-dasharray:none;stroke-opacity:1" d="M 135.46666 36.654093 C 89.209274 36.654093 50.366936 68.480565 39.61877 111.41697 L 43.596822 111.41697 C 54.240425 70.615652 91.320594 40.51949 135.46666 40.51949 C 187.92363 40.51949 230.41436 83.009699 230.41436 135.46666 C 230.41436 141.97796 229.75669 148.33489 228.50956 154.47687 L 232.4318 154.47687 C 233.63253 148.32285 234.27924 141.97094 234.27924 135.46666 C 234.27924 80.913054 190.02027 36.654093 135.46666 36.654093 z M 38.501525 116.45697 C 37.300797 122.611 36.654093 128.96239 36.654093 135.46666 C 36.654093 190.02027 80.913054 234.27924 135.46666 234.27924 C 181.7239 234.27924 220.56625 202.45306 231.31456 159.51688 L 227.33703 159.51688 C 216.69342 200.31819 179.61274 230.41436 135.46666 230.41436 C 83.009699 230.41436 40.51949 187.92363 40.51949 135.46666 C 40.51949 128.95537 41.177152 122.59895 42.424283 116.45697 L 38.501525 116.45697 z "/>
    <path d="m 40.708104,150.34819 10.030671,0 c 2.788289,0 5.234789,-0.61163 7.339498,-1.83488 2.122698,-1.22325 3.750699,-2.98616 4.884004,-5.28875 1.133305,-2.30259 1.699957,-5.01892 1.699957,-8.149 0,-4.71311 -1.295205,-8.30191 -3.885616,-10.7664 -2.572422,-2.48248 -6.305132,-3.72372 -11.198131,-3.72372 l -8.870383,0 -2.225354,-4.12846 h 11.203671 c 6.440049,0 11.405004,1.61901 14.894863,4.85702 3.507848,3.22002 5.261772,7.80721 5.261772,13.76156 0,3.92159 -0.764531,7.35748 -2.293593,10.30767 -1.529062,2.9322 -3.696732,5.18082 -6.503011,6.74586 -2.806279,1.56504 -6.044292,2.34756 -9.714041,2.34756 H 38.48275 Z m 36.31255,4.12846 v -38.01967 h 28.845306 v 4.20941 H 82.174492 v 12.19652 h 22.072458 v 4.15545 H 82.174492 v 13.24888 h 24.797788 v 4.20941 z m 66.271356,-10.71242 c 0,3.38192 -1.23225,6.0173 -3.69674,7.90615 -2.46449,1.87085 -5.89138,2.80627 -10.28069,2.80627 h -15.43453 v -38.01967 h 13.81552 c 8.92253,0 13.38379,3.07611 13.38379,9.22834 0,2.24862 -0.62961,4.13746 -1.88884,5.66652 -1.25923,1.52906 -3.04013,2.55443 -5.34272,3.07611 3.02215,0.35978 5.35172,1.37616 6.98871,3.04913 1.637,1.65499 2.4555,3.7507 2.4555,6.28715 z m -7.39347,-17.4583 c 0,-2.05074 -0.70157,-3.51684 -2.10471,-4.3983 -1.40314,-0.88146 -3.43589,-1.32219 -6.09826,-1.32219 h -8.66168 v 12.03462 h 8.66168 c 2.75231,0 4.80306,-0.51268 6.15223,-1.53805 1.36716,-1.04336 2.05074,-2.63539 2.05074,-4.77608 z m 2.18566,17.05354 c 0,-4.47925 -3.14807,-6.71887 -9.44421,-6.71887 h -9.6061 v 13.70759 h 10.01086 c 3.14807,0 5.44166,-0.58464 6.88077,-1.75393 1.43912,-1.16928 2.15868,-2.91421 2.15868,-5.23479 z m 13.22189,11.11718 v -38.01967 h 5.15384 v 38.01967 z m 41.74339,0 -4.34434,-11.11718 h -17.32337 l -4.37132,11.11718 h -5.34272 l 15.51548,-38.01967 h 5.85541 l 15.27263,38.01967 z m -13.00602,-34.13406 -0.24285,0.75554 c -0.44973,1.49309 -1.11532,3.40891 -1.99678,5.74747 l -4.85702,12.49334 h 14.22028 l -4.88401,-12.5473 c -0.50369,-1.24124 -1.00738,-2.64438 -1.51107,-4.20942 z m 47.57182,34.13406 -20.34552,-32.38013 0.13491,2.61739 0.13492,4.50624 v 25.2565 h -4.58718 v -38.01967 h 5.99032 l 20.56139,32.596 2.43139,5.42367 z" id="text3" style="font-size:55.2621px;line-height:0;font-family:'Liberation Sans';-inkscape-font-specification:'Liberation Sans';text-align:center;text-anchor:middle;fill:#ffffff;stroke-width:6.90777;stroke-miterlimit:100" aria-label="DEBIAN" sodipodi:nodetypes="cscsscsccscscsscccccccccccccccscsccsssccssssccscsssccsssccccccccccccccccccccccccccccccccc"/>
  </g>
</svg>