<?xml version="1.0" encoding="UTF-8" standalone="no"?>
<!-- Created with Inkscape (http://www.inkscape.org/) -->
<svg width="1024" height="1024" viewBox="0 0 270.93333 270.93333" version="1.1" id="svg6884" inkscape:version="1.3 (0e150ed6c4, 2023-07-21)" sodipodi:docname="mint_starfield.svg" inkscape:export-filename="arch_starfield.png" inkscape:export-xdpi="96" inkscape:export-ydpi="96" xmlns:inkscape="http://www.inkscape.org/namespaces/inkscape" xmlns:sodipodi="http://sodipodi.sourceforge.net/DTD/sodipodi-0.dtd" xmlns="http://www.w3.org/2000/svg" xmlns:svg="http://www.w3.org/2000/svg">
  <sodipodi:namedview id="namedview6886" pagecolor="#505050" bordercolor="#eeeeee" borderopacity="1" inkscape:showpageshadow="0" inkscape:pageopacity="0" inkscape:pagecheckerboard="true" inkscape:deskcolor="#333333" inkscape:document-units="px" showgrid="false" inkscape:zoom="1.0469406" inkscape:cx="496.68528" inkscape:cy="351.97793" inkscape:window-width="2544" inkscape:window-height="1373" inkscape:window-x="0" inkscape:window-y="0" inkscape:window-maximized="1" inkscape:current-layer="layer1" inkscape:export-bgcolor="#00000000">
    <sodipodi:guide position="0,135.467" orientation="0,1" inkscape:color="rgba(63, 63, 255, 0.25098)" id="guide1" inkscape:locked="false"/>
    <sodipodi:guide position="135.467,0" orientation="1,0" inkscape:color="rgba(63, 63, 255, 0.25098)" id="guide2" inkscape:locked="false"/>
  </sodipodi:namedview>
  <defs id="defs6881">
    <rect x="380.87164" y="409.79894" width="293.07118" height="191.35741" id="rect2"/>
  </defs>
  <g inkscape:label="Layer 1" inkscape:groupmode="layer" id="layer1">
    <path d="m 11.747598,150.79852 v -31.10869 h 4.217006 v 27.66444 h 15.719938 v 3.44425 z m 57.889998,0 -16.647237,-26.49427 0.110392,2.14162 0.110393,3.68712 v 20.66553 h -3.753356 v -31.10869 h 4.901442 l 16.823866,26.6709 c -0.176629,-2.88493 -0.264943,-4.97504 -0.264943,-6.27031 v -20.40059 h 3.797513 v 31.10869 z m 24.904622,0.44157 c -2.546395,0 -4.76897,-0.46365 -6.667727,-1.39095 -1.898756,-0.92729 -3.37066,-2.27408 -4.415713,-4.04037 -1.045052,-1.76629 -1.567578,-3.87111 -1.567578,-6.31447 v -19.80447 h 4.217006 v 19.45121 c 0,2.84077 0.721233,4.99711 2.163699,6.46902 1.442467,1.47191 3.525211,2.20786 6.248234,2.20786 2.796618,0 4.967678,-0.75803 6.513181,-2.2741 1.56021,-1.53078 2.34032,-3.76071 2.34032,-6.6898 v -19.16419 h 4.19493 v 19.40705 c 0,2.51696 -0.53724,4.68802 -1.61173,6.51318 -1.05977,1.82516 -2.56848,3.22347 -4.52611,4.19493 -1.942914,0.95673 -4.239085,1.4351 -6.888512,1.4351 z m 41.066132,-0.44157 -9.33923,-13.60039 -9.53794,13.60039 h -4.65858 l 11.83411,-16.16151 -10.92889,-14.94718 h 4.65858 l 8.65479,12.20944 8.41194,-12.20944 h 4.65857 l -10.64186,14.79263 11.54709,16.31606 z m 48.32997,0 v -20.75385 c 0,-2.29617 0.0662,-4.50402 0.19871,-6.62357 -0.72123,2.63471 -1.36887,4.69538 -1.94292,6.182 l -8.03659,21.19542 h -2.95853 l -8.14699,-21.19542 -1.2364,-3.75335 -0.72859,-2.42865 0.0662,2.45072 0.0883,4.17285 v 20.75385 h -3.75336 v -31.10869 h 5.54172 l 8.27946,21.57075 c 0.29438,0.86843 0.57404,1.80309 0.83899,2.80398 0.27966,0.98617 0.46365,1.70005 0.55196,2.14162 0.11775,-0.58876 0.36062,-1.47926 0.72859,-2.6715 0.3827,-1.20697 0.64028,-1.965 0.77275,-2.2741 l 8.12491,-21.57075 h 5.40925 v 31.10869 z m 11.67956,0 v -31.10869 h 4.21701 v 31.10869 z m 15.63163,-26.49427 0.1104,2.14162 0.11039,3.68712 v 20.66553 h -3.75336 v -31.10869 h 4.90144 l 17.09868,27.1176 -1.03541,3.99112 h -0.65249 c -5.58138,-8.83833 -11.18428,-17.66437 -16.77965,-26.4943 z m 41.30899,-1.17017 v 27.66444 h -4.19493 v -27.66444 h -10.68602 v -3.44425 h 25.56698 v 3.44425 z" id="text1" style="font-size:45.2169px;font-family:'Liberation Sans';-inkscape-font-specification:'Liberation Sans';text-align:center;text-anchor:middle;fill:#ffffff;stroke-width:4.71008;stroke-miterlimit:100" aria-label="LINUX MINT" sodipodi:nodetypes="ccccccccccccccccsccccssssccssscsccsccsccccccccccccccsccccccccccccccccccccccccccccccccccccccccccccccc"/>
    <path id="path1" style="color:#000000;fill:#ffffff;stroke-miterlimit:100;-inkscape-stroke:none" d="M 135.46666 37.806477 C 88.695771 37.806477 49.602121 70.730196 40.054919 114.64985 L 43.323453 114.64985 C 52.802564 72.484468 90.429733 40.995947 135.46666 40.995947 C 187.66022 40.995947 229.93738 83.273105 229.93738 135.46666 C 229.93738 140.68947 229.49588 145.80676 228.68165 150.79855 L 231.91866 150.79855 C 232.70737 145.80232 233.12685 140.68383 233.12685 135.46666 C 233.12685 81.549327 189.384 37.806477 135.46666 37.806477 z M 39.094771 119.68985 C 38.259169 124.82766 37.806477 130.09355 37.806477 135.46666 C 37.806477 189.384 81.549327 233.12685 135.46666 233.12685 C 182.3964 233.12685 221.60339 199.9821 230.98125 155.83855 L 227.71271 155.83855 C 218.39995 198.22814 180.66251 229.93738 135.46666 229.93738 C 83.273105 229.93738 40.995947 187.66022 40.995947 135.46666 C 40.995947 130.08788 41.468698 124.82259 42.331266 119.68985 L 39.094771 119.68985 z "/>
  </g>
</svg>